<svg xmlns="http://www.w3.org/2000/svg" viewBox="0 0 24 24" fill="white">
  <path d="M12 0C5.373 0 0 5.373 0 12a12 12 0 008.207 11.386c.6.111.793-.261.793-.58 
  0-.287-.011-1.244-.017-2.255-3.338.726-4.042-1.61-4.042-1.61-.546-1.387-1.333-1.757-1.333-1.757-1.089-.745.083-.73.083-.73 
  1.205.085 1.84 1.237 1.84 1.237 1.07 1.834 2.807 1.304 3.492.997.108-.775.418-1.305.762-1.605-2.665-.304-5.466-1.332-5.466-5.93 
  0-1.31.469-2.381 1.236-3.221-.124-.303-.536-1.523.117-3.176 0 0 1.008-.322 3.301 1.23A11.5 11.5 0 0112 5.8c1.02.005 2.047.138 
  3.003.403 2.291-1.552 3.297-1.23 3.297-1.23.655 1.653.243 2.873.12 3.176A4.49 4.49 0 0120 12.07c0 4.61-2.805 5.624-5.475 5.92.43.372.823 1.103.823 2.222 
  0 1.606-.015 2.898-.015 3.293 0 .322.192.697.801.579A12.004 12.004 0 0024 12c0-6.627-5.373-12-12-12z"></path>
</svg>
