<svg width="24" height="24" viewBox="0 0 24 24" fill="none" xmlns="http://www.w3.org/2000/svg">
  <path d="M12 2C9 2 9 4.5 9 4.5V7H14V8H6C3 8 3 10.5 3 10.5V13C3 16 6 16 6 16H9V14.5C9 12 12 12 12 12H18C21 12 21 10 21 10V6C21 3 18 2 18 2H12Z" fill="#3776AB"></path>
  <path d="M12 22C15 22 15 19.5 15 19.5V17H10V16H18C21 16 21 13.5 21 13.5V11C21 8 18 8 18 8H15V9.5C15 12 12 12 12 12H6C3 12 3 14 3 14V18C3 21 6 22 6 22H12Z" fill="#FFE873"></path>
  <circle cx="9.5" cy="5.5" r="1" fill="white"></circle>
  <circle cx="14.5" cy="18.5" r="1" fill="white"></circle>
</svg>
